<svg xmlns="http://www.w3.org/2000/svg" width="2480" height="3508" viewBox="0 0 2480 3508">
  <defs>
    <style>
      .cls-1 {
        fill: #863636;
        fill-rule: evenodd;
      }
    </style>
  </defs>
  <path id="Color_Fill_1" data-name="Color Fill 1" class="cls-1" d="M357.7,1220.34l-43.686-149.87L270.75,1220.34H357.7Zm-86.536-201.91h85.49l101.586,287.61H381.532l-11.914-40.76H257.372l-11.078,40.76H169.582Zm36.788,105.55q2.3-7.935,3.762-15.36c0.974-4.94,1.741-9.86,2.3-14.73a112.6,112.6,0,0,0,1.776,13.9q1.358,7.2,4.076,16.82l24.874,85.91h-62.08Zm-55.182,191.89,11.914-40.76H362.72l11.5,40.76h98.033L363.974,1007.98H263.852L155.578,1315.87h97.2Zm402.371-65.32q12.747-16.62,12.75-45.88,0-31.77-11.81-47.14t-36.056-15.36q-23.829,0-35.744,15.57t-11.914,46.93q0,29.475,12.646,45.98t35.012,16.52Q642.392,1267.17,655.145,1250.55Zm-79.221,65.32v-18.81a36.239,36.239,0,0,0-.627-6.69,46.562,46.562,0,0,0-1.881-6.9q13.585,20.07,33.026,30.31t43.895,10.24q43.895,0,70.755-33.13t26.859-87.69q0-54.96-27.068-87.99t-71.8-33.03a83.339,83.339,0,0,0-40.028,9.82q-18.292,9.84-27.9,26.34a65.527,65.527,0,0,0,2.2-10.14,82.457,82.457,0,0,0,.731-11.18v-89.04H495.868v307.89h80.056Zm34.7-213.1Q628.387,1092,650.755,1092q38.457,0,62.5,30.63,24.034,30.615,24.038,80.16,0,50.16-23.933,80.58t-62.6,30.41a84.545,84.545,0,0,1-45.672-13.27q-21.217-13.275-39.819-39.82v45.35H506.529V1018.43h67.723v120.19Q592.854,1113.525,610.622,1102.77Zm-18.289,62.08q9.093-12.855,28.114-12.86,18.812,0,27.8,12.86t8.988,39.82q0,24.66-9.824,38.56t-26.964,13.9q-17.353,0-27.278-13.9t-9.929-38.56Q583.24,1177.7,592.333,1164.85Zm349.07-8.78q-9.3-13.065-31.667-13.06-22.575,0-33.758,15.25-11.184,15.27-11.183,45.78v102H795.818V1018.43H864.8V1138.2q18.186-23.415,37.311-34.6a79.681,79.681,0,0,1,40.864-11.18q26.337,0,44.418,11.39t25.812,32.72q3.345,9.2,4.91,23.3a354.264,354.264,0,0,1,1.57,37.52v108.69H950.7V1203.62Q950.7,1169.135,941.4,1156.07Zm-65.947,159.8V1198.61q0-23.2,8.361-34.49t25.5-11.29q16.931,0,23.828,9.61,6.9,9.63,6.9,35.75v117.68h90.3v-118.1q0-33.24-2.3-48.08a88.364,88.364,0,0,0-7.94-26.12q-9.4-19.02-28.95-30-19.546-10.965-44.626-10.97-24.25,0-44,9.72a81.362,81.362,0,0,0-31.876,27.48q2.508-8.355,3.658-14a48.341,48.341,0,0,0,1.15-9.2v-88.62h-90.3v307.89h90.3Zm214.874-305.59h69.82v45.35h-69.82v-45.35Zm0,88.2h69.82v207.56h-69.82V1098.48Zm80.48-33.02v-65.01h-91.14v65.01h91.14Zm0,250.41V1088.66h-91.14v227.21h91.14Zm72.01-11.71q28.935,19.86,84.13,19.86,59.565,0,89.98-19.86t30.42-58.94q0-29.9-17.35-45.88t-69.4-28.12q-7.74-1.875-20.9-4.59-34.485-7.32-34.49-21.12a13.24,13.24,0,0,1,6.27-11.81q6.27-4.065,18.18-4.07t19.76,6.06a22.664,22.664,0,0,1,8.88,16.3h81.31q-4.185-35.52-32.08-53.51-27.915-17.97-78.7-17.97-54.765,0-83.3,19.12T1217,1155.34q0,30.09,19.23,45.98t74.83,27.59q4.395,1.05,11.92,2.51,34.9,7.11,34.9,22.37,0,9.4-7.63,14.32t-21.84,4.91q-14.85,0-22.26-7.11-7.425-7.1-7.42-21.53h-87.79Q1213.865,1284.31,1242.82,1304.16Zm58.42-28.32q9.825,7.425,27.17,7.42,18.39,0,29.26-7.94a25.274,25.274,0,0,0,10.87-21.53q0-12.33-8.67-19.34-8.685-6.99-40.03-13.69-56.025-11.49-74.1-25.29t-18.08-39.3q0-33.015,25.71-49.85,25.71-16.815,75.88-16.82,42.015,0,67.2,13.79t29.16,38.88h-60.83a25.145,25.145,0,0,0-11.81-16.41q-9.51-5.955-23.72-5.96-15.675,0-25.19,7.42a23.608,23.608,0,0,0-9.51,19.55q0,20.07,48.07,30.52,8.58,1.875,13.17,2.92,46.41,10.245,63.65,24.77t17.24,40.24q0,33.66-27.59,51.1-27.585,17.46-80.68,17.46-47.865,0-74.41-15.26t-29.68-44.31h65.42Q1291.4,1268.415,1301.24,1275.84Zm339.14-119.77q-9.3-13.065-31.67-13.06-22.575,0-33.76,15.25-11.175,15.27-11.18,45.78v102h-68.98V1018.43h68.98V1138.2q18.18-23.415,37.31-34.6a79.684,79.684,0,0,1,40.87-11.18q26.325,0,44.41,11.39t25.82,32.72q3.345,9.2,4.91,23.3a354.264,354.264,0,0,1,1.57,37.52v108.69h-68.98V1203.62Q1649.68,1169.135,1640.38,1156.07Zm-65.95,159.8V1198.61q0-23.2,8.36-34.49t25.5-11.29q16.935,0,23.83,9.61,6.9,9.63,6.9,35.75v117.68h90.3v-118.1q0-33.24-2.3-48.08a88.66,88.66,0,0,0-7.94-26.12q-9.4-19.02-28.95-30-19.56-10.965-44.63-10.97-24.255,0-44,9.72a81.36,81.36,0,0,0-31.88,27.48c1.68-5.57,2.89-10.24,3.66-14a47.856,47.856,0,0,0,1.15-9.2v-88.62h-90.3v307.89h90.3Zm450.03-93.85v-6.27q0-63.135-34.59-99.19t-94.8-36.05q-60.4,0-95.52,33.23t-35.12,90.3q0,54.975,34.39,87.48t92.91,32.5q52.245,0,84.24-19.23,31.98-19.23,41.17-56.23h-86.53a24.918,24.918,0,0,1-11.92,14.11q-8.775,4.92-21.53,4.91-19.65,0-30.62-11.81t-11.6-33.54ZM1844.07,1217q0,29.265,13.28,44.84,13.26,15.57,38.56,15.57,13.995,0,24.67-4.91,10.65-4.92,15.67-13.49h66.26q-9.195,26.13-37.83,40.45t-72.11,14.32q-53.73,0-85.49-30-31.785-29.985-31.78-80.58,0-52.035,32.3-82.46,32.3-30.4,87.47-30.41t86.75,32.3q31.56,32.3,31.77,89.14H1844.07V1217Zm102.42-30.31v-1.46q0-29.265-13.48-44.94t-38.77-15.68q-22.785,0-36.48,15.78-13.68,15.795-13.69,42.75v3.55h102.42Zm-80.26-41.07q10.455-11.175,28.01-11.18,19.23,0,29.58,10.55t12.01,31.67h-80.89Q1855.78,1156.8,1866.23,1145.62Zm206.1-127.19h68.97v167.22l75.25-87.17h72.33l-73.58,73.58,90.72,133.98h-83.41l-53.09-87.79-28.22,28.64v59.15h-68.97V1018.43Zm79.63,297.44v-65.43l15.47-15.88,49.54,81.31h107.44l-95.94-143.39,84.44-83.82H2211.54l-54.56,64.17a64.327,64.327,0,0,0-3.87,5.54q-2.19,3.45-4.7,7.63a71.21,71.21,0,0,0,2.72-11.6,77.353,77.353,0,0,0,.83-10.98V1007.98h-90.29v307.89h90.29ZM473.712,1767.57H542.69v167.22l75.248-87.16h72.323l-73.577,73.57L707.4,2055.19H624l-53.092-87.79-28.218,28.63v59.16H473.712V1767.57Zm79.638,297.44v-65.42l15.468-15.89,49.538,81.31H725.8l-95.942-143.39L714.3,1837.8H612.922l-54.556,64.17a65.334,65.334,0,0,0-3.866,5.54q-2.2,3.45-4.7,7.63a71.719,71.719,0,0,0,2.717-11.6,76.633,76.633,0,0,0,.836-10.97V1757.12h-90.3v307.89h90.3ZM903.465,1837.8v116.85q0,23.19-8.466,34.69t-25.4,11.5q-16.93,0-24.038-9.93t-7.107-35.85V1837.8h-89.88v117.68q0,35.535,2.2,49.75a79.357,79.357,0,0,0,7.629,24.66q9.406,18.825,29.055,30a86.791,86.791,0,0,0,43.686,11.18q26.542,0,47.553-11.81t35.429-34.8a57.634,57.634,0,0,0-2.2,8.78,54.267,54.267,0,0,0-.731,8.99v22.78h82.564V1837.8h-90.3ZM837.1,1997.29q9.508,13.38,32.085,13.37t33.757-15.46q11.179-15.465,11.183-46.2V1847.21H983.1v207.98h-62.08v-51.42q-19.86,29.265-41.073,43.37t-45.463,14.11q-24.877,0-42.954-11.71t-26.024-32.81a102.464,102.464,0,0,1-4.807-23.31,370.85,370.85,0,0,1-1.464-37.1V1847.21h68.351v102.21Q827.589,1983.905,837.1,1997.29Zm434.87,57.9h-67.09V1952.76q0-34.695-9.2-47.65t-31.14-12.96q-22.38,0-33.24,15.05-10.875,15.045-10.87,45.98v102.01h-67.1V1847.63h60.41v51.21q19.86-29.685,40.66-43.48a80.863,80.863,0,0,1,45.67-13.8q25.08,0,42.33,13.07t25.81,38.77q16.1-25.08,37.21-38.46t44.1-13.38q24.66,0,42.43,11.6t25.3,32.51q3.33,9.195,4.8,23.3t1.47,37.52v108.7H1356V1952.76q0-34.275-9.3-47.44t-31.46-13.17q-20.9,0-32.08,13.9t-11.19,40.44v108.7Zm-140.67,9.82V1947.75q0-23.625,8.05-34.7t25.19-11.08q16.08,0,22.88,9.93t6.8,35.43v117.68h88.62v-118.1q0-23.4,7.74-34.17t24.24-10.77q16.725,0,23.62,9.62t6.9,35.74v117.68h89.05v-118.1q0-33.24-2.3-48.28a98.02,98.02,0,0,0-7.53-26.34q-8.985-18.6-28.43-29.58a86.107,86.107,0,0,0-43.05-10.97q-27.81,0-48.5,11.5t-33.44,33.86q-7.74-21.945-25.71-33.66-17.985-11.7-43.48-11.7-25.92,0-46.4,11.7t-35.12,34.91a61.516,61.516,0,0,0,2.09-9.3,62.447,62.447,0,0,0,.63-8.67V1837.8h-80.48v227.21h88.63Zm467.59-100.96q-43.905,12.12-43.9,35.54,0,13.785,9.09,21.42,9.105,7.635,26.03,7.63,29.475,0,42.33-13.38,12.855-13.365,12.85-48.28v-18.81q-16.935,7.935-46.4,15.88h0Zm-71.8-109.32q28.74-15.255,79.32-15.26,57.69,0,82.15,16.93t24.45,57.49v120.39a62.269,62.269,0,0,0,.94,11.81,45.72,45.72,0,0,0,2.83,9.1h-65.85l-6.89-28.64q-20.07,18.81-41.7,27.59t-47.77,8.78q-33.225,0-52.15-16.51t-18.91-45.57q0-29.685,19.64-43.69t93.86-23.2q31.14-3.555,39.71-9.72t8.57-20.17q0-15.045-9.93-22.26t-30.2-7.21q-16.935,0-27.18,5.64a29.238,29.238,0,0,0-14,16.93H1497.3Q1498.35,1870,1527.09,1854.73Zm107.54,113.08v7.32q0,22.785-10.35,33.23-10.335,10.455-32.5,10.46-12.33,0-19.23-5.44t-6.9-15.05q0-15.255,33.45-23.83,22.365-5.64,35.53-10.87v4.18Zm98.87,97.2v-6.48a19.241,19.241,0,0,1-7.32-7.84,24.725,24.725,0,0,1-2.51-11.39V1912.63q0-28.635-8.46-43.68-8.46-15.06-28.32-24.88-13.17-6.48-34.91-10.45a256.445,256.445,0,0,0-45.99-3.97q-59.355,0-89.46,19.44-30.09,19.44-30.1,57.9h86.12q1.26-11.49,8.78-17.04t21.53-5.54q16.725,0,24.25,4.5t7.52,14.32q0,17.55-43.89,22.36-11.505,1.26-18.19,2.09-58.11,7.32-78.91,23.62t-20.79,49.54q0,34.29,21.42,53.3t60.3,19.02a126.554,126.554,0,0,0,45.68-8.05,120.575,120.575,0,0,0,38.56-24.14c0,3.63.03,6,.11,7.11a11.126,11.126,0,0,0,.52,2.93l3.34,14h90.72Zm53.51-217.38h61.66v71.06q13.38-39.915,31.35-58.52t43.48-18.61h4.39v69.4h-8.15q-32.61,0-47.97,16.3t-15.37,50.8v77.13h-69.39V1847.63Zm80.05,124.16q0-26.34,12.65-38.67t39.61-12.34q3.345,0,8.15.32t11.08,0.73v-90.09h-8.15q-29.895,0-47.14,12.96t-27.27,43.06q1.455-7.53,2.19-13.48a80.373,80.373,0,0,0,.73-9.1V1837.8h-82.56v227.21h90.71v-93.22Z"/>
</svg>
